<?xml version="1.0" standalone="no"?>
<!DOCTYPE svg PUBLIC "-//W3C//DTD SVG 20010904//EN"
 "http://www.w3.org/TR/2001/REC-SVG-20010904/DTD/svg10.dtd">
<svg version="1.0" xmlns="http://www.w3.org/2000/svg"
 width="449.000000pt" height="448.000000pt" viewBox="0 0 449.000000 448.000000"
 preserveAspectRatio="xMidYMid meet">

<g transform="translate(0.000000,448.000000) scale(0.100000,-0.100000)"
fill="#000000" stroke="none">
<path d="M1920 4464 c-52 -7 -138 -23 -190 -35 -301 -68 -675 -251 -906 -444
-423 -353 -695 -806 -791 -1320 -34 -186 -44 -534 -19 -721 91 -697 516 -1322
1131 -1665 236 -132 518 -227 783 -263 165 -23 471 -21 640 4 385 56 745 212
1061 458 376 293 670 744 785 1204 28 110 54 251 58 308 2 19 5 -422 8 -980 3
-629 5 -162 5 1230 0 1392 -2 1859 -5 1230 -3 -558 -6 -999 -8 -980 -15 218
-127 573 -255 810 -340 631 -948 1057 -1652 1161 -157 23 -496 25 -645 3z
m588 -1356 c7 -7 12 -24 12 -38 0 -19 7 -28 30 -37 l30 -11 0 -222 0 -221 -30
-17 c-27 -15 -30 -22 -30 -68 0 -34 -5 -56 -15 -64 -8 -7 -15 -27 -15 -44 0
-18 -5 -37 -12 -44 -9 -9 -84 -12 -275 -12 -250 0 -264 1 -283 20 -19 19 -20
33 -20 375 0 342 1 356 20 375 19 19 33 20 298 20 203 0 281 -3 290 -12z
m-1633 -1338 l19 -75 19 65 c10 36 20 71 22 78 2 6 14 12 25 12 19 0 20 -6 20
-130 0 -123 -1 -130 -20 -130 -18 0 -20 7 -21 68 l0 67 -18 -63 c-10 -34 -21
-65 -24 -68 -3 -3 -15 23 -25 57 l-20 64 -1 -62 c-1 -56 -3 -63 -21 -63 -19 0
-20 7 -20 131 0 130 0 130 23 127 18 -2 25 -15 42 -78z m446 7 c9 -38 19 -70
21 -72 2 -3 13 29 23 70 16 67 21 75 42 75 23 0 23 0 23 -130 0 -123 -1 -130
-20 -130 -18 0 -20 7 -21 68 l-1 67 -22 -70 c-24 -74 -26 -73 -50 5 l-14 45
-1 -57 c-1 -55 -2 -58 -26 -58 l-25 0 0 123 c0 68 3 127 7 131 4 4 16 6 27 4
15 -2 24 -18 37 -71z m1426 46 l27 -26 -24 -9 c-15 -5 -27 -5 -34 2 -5 5 -20
10 -33 10 -34 0 -29 -28 9 -48 47 -25 88 -67 88 -91 0 -11 -11 -32 -24 -48
-32 -37 -93 -39 -130 -4 -14 14 -26 30 -26 37 0 21 38 23 56 3 21 -23 60 -25
68 -3 9 22 2 29 -54 60 -52 29 -73 63 -59 101 18 49 94 59 136 16z m173 -8 c0
-32 2 -35 30 -35 23 0 30 -4 30 -20 0 -16 -7 -20 -30 -20 -30 0 -30 -1 -30
-55 0 -54 0 -55 30 -55 33 0 38 -11 14 -34 -20 -20 -43 -20 -72 0 -19 13 -22
24 -22 80 0 57 -2 64 -20 64 -13 0 -20 7 -20 20 0 13 7 20 20 20 15 0 20 7 20
29 0 16 6 32 13 34 29 12 37 6 37 -28z m-1826 -92 c10 -29 22 -53 26 -53 4 0
15 25 25 55 16 45 23 55 42 55 13 0 23 -3 23 -7 0 -4 -21 -62 -46 -130 -42
-112 -49 -123 -71 -123 -20 0 -24 4 -18 18 17 46 15 71 -14 145 -37 93 -38 99
-9 95 17 -2 27 -16 42 -55z m536 37 c16 -16 20 -33 20 -94 l0 -73 -57 -7 c-47
-6 -62 -3 -83 12 -56 42 -25 112 50 112 22 0 40 5 40 10 0 18 -31 24 -62 12
-24 -9 -30 -8 -38 8 -13 25 11 39 68 40 29 0 48 -6 62 -20z m216 12 c23 -15
34 -53 34 -116 0 -64 -1 -66 -25 -66 -24 0 -25 2 -25 64 0 69 -14 92 -50 81
-18 -6 -20 -15 -20 -76 0 -67 -1 -69 -25 -69 -25 0 -25 0 -25 94 l0 93 63 1
c34 1 67 -2 73 -6z m252 -74 c4 -111 -10 -156 -56 -175 -33 -14 -37 -13 -49 3
-15 20 -9 34 16 34 10 0 23 6 29 13 8 10 2 12 -30 12 -30 0 -45 6 -59 24 -27
33 -26 110 2 145 19 24 26 26 82 24 l62 -3 3 -77z m204 65 c14 -13 18 -31 18
-93 l0 -77 -56 -7 c-42 -5 -63 -3 -80 8 -57 38 -30 109 45 114 27 2 41 7 38
15 -4 12 -46 15 -77 6 -9 -2 -16 4 -18 18 -4 24 10 30 72 32 24 1 47 -5 58
-16z m887 7 c43 -23 52 -120 15 -161 -24 -27 -76 -34 -112 -15 -59 30 -62 142
-5 175 23 13 79 14 102 1z m269 -32 c3 -35 1 -38 -22 -38 -19 0 -26 5 -26 20
0 11 -6 20 -14 20 -26 0 -46 -30 -46 -71 0 -35 3 -39 25 -39 18 0 25 -5 25
-20 0 -18 -7 -20 -70 -20 -63 0 -70 2 -70 20 0 13 7 20 20 20 18 0 20 7 20 55
0 48 -2 55 -20 55 -13 0 -20 7 -20 20 0 18 6 19 98 17 l97 -2 3 -37z m189 20
c16 -15 23 -33 23 -60 l0 -38 -61 0 c-44 0 -60 -3 -56 -12 2 -8 21 -13 45 -13
76 0 75 -39 -2 -52 -30 -5 -40 -1 -66 25 -40 41 -43 110 -5 147 32 33 89 34
122 3z m-1097 -63 c0 -25 -1 -25 -85 -25 -84 0 -85 0 -85 25 0 25 1 25 85 25
84 0 85 0 85 -25z"/>
<path d="M1942 3078 c-9 -9 -12 -95 -12 -326 0 -282 2 -314 16 -308 9 3 33 6
55 6 l39 0 2 247 c2 186 6 247 16 251 9 3 12 -51 12 -247 l0 -251 210 0 210 0
0 320 0 320 -268 0 c-195 0 -271 -3 -280 -12z m68 -33 c0 -15 -43 -12 -48 3
-3 10 4 13 22 10 15 -2 26 -7 26 -13z m60 -26 c0 -52 -24 -48 -28 4 -2 28 1
37 12 37 12 0 16 -11 16 -41z m-60 -44 c0 -15 -43 -12 -48 3 -3 10 4 13 22 10
15 -2 26 -7 26 -13z m0 -70 c0 -15 -43 -12 -48 3 -3 10 4 13 22 10 15 -2 26
-7 26 -13z m348 -1 c12 -8 29 -28 37 -44 19 -36 21 -163 3 -177 -7 -6 -43 -10
-80 -11 -61 0 -70 2 -88 25 -30 38 -28 116 5 148 29 30 54 31 88 5 22 -18 27
-30 29 -82 2 -41 8 -63 17 -66 11 -4 13 11 9 73 -4 93 -22 115 -96 115 -72 0
-92 -25 -92 -116 0 -40 3 -80 6 -89 11 -27 60 -45 124 -45 45 0 61 -3 58 -12
-3 -8 -28 -14 -66 -16 -122 -6 -174 58 -157 194 5 41 13 61 36 84 27 26 38 30
88 30 35 0 65 -6 79 -16z m-348 -69 c0 -15 -43 -12 -48 3 -3 10 4 13 22 10 15
-2 26 -7 26 -13z m0 -70 c0 -15 -43 -12 -48 3 -3 10 4 13 22 10 15 -2 26 -7
26 -13z m0 -70 c0 -15 -43 -12 -48 3 -3 10 4 13 22 10 15 -2 26 -7 26 -13z m0
-70 c0 -15 -43 -12 -48 3 -3 10 4 13 22 10 15 -2 26 -7 26 -13z m0 -70 c0 -15
-43 -12 -48 3 -3 10 4 13 22 10 15 -2 26 -7 26 -13z m0 -70 c0 -15 -43 -12
-48 3 -3 10 4 13 22 10 15 -2 26 -7 26 -13z"/>
<path d="M2255 2824 c-22 -22 -17 -103 8 -118 30 -19 52 4 55 60 3 37 -1 51
-14 61 -23 17 -29 16 -49 -3z"/>
<path d="M2520 2929 c0 -62 2 -70 15 -59 10 8 15 31 15 71 0 46 -3 59 -15 59
-12 0 -15 -15 -15 -71z"/>
<path d="M2533 2833 c-9 -3 -13 -25 -13 -61 0 -51 1 -55 16 -41 19 20 16 108
-3 102z"/>
<path d="M2533 2693 c-9 -3 -13 -25 -13 -61 0 -51 1 -55 16 -41 19 20 16 108
-3 102z"/>
<path d="M1945 2406 c-16 -12 -17 -16 -6 -30 12 -14 46 -16 267 -16 l254 0 0
30 0 30 -248 0 c-196 0 -252 -3 -267 -14z"/>
<path d="M1537 1663 c-19 -18 -6 -34 25 -31 44 4 53 38 10 38 -16 0 -32 -3
-35 -7z"/>
<path d="M1993 1728 c-18 -24 -22 -48 -13 -74 8 -20 16 -25 38 -22 23 3 27 8
30 41 5 55 -29 88 -55 55z"/>
<path d="M2204 1659 c-3 -6 -2 -15 4 -21 15 -15 56 -5 60 15 3 13 -3 17 -27
17 -16 0 -33 -5 -37 -11z"/>
<path d="M3104 1715 c-32 -49 19 -110 62 -75 30 26 7 100 -31 100 -8 0 -22
-11 -31 -25z"/>
<path d="M3557 1734 c-15 -16 -5 -24 29 -24 24 0 34 4 32 13 -5 13 -50 22 -61
11z"/>
</g>
</svg>
